<mxfile host="app.diagrams.net" modified="2023-05-29T10:20:36.939Z" agent="Mozilla/5.0 (Windows NT 10.0; Win64; x64) AppleWebKit/537.36 (KHTML, like Gecko) Chrome/115.0.0.0 Safari/537.36 Edg/115.0.0.0" etag="rMvtFwu8bAM8xzm9Nd3O" version="21.3.5" type="github">
  <diagram id="C5RBs43oDa-KdzZeNtuy" name="Page-1">
    <mxGraphModel dx="2227" dy="809" grid="1" gridSize="10" guides="1" tooltips="1" connect="1" arrows="1" fold="1" page="1" pageScale="1" pageWidth="827" pageHeight="1169" math="0" shadow="0">
      <root>
        <mxCell id="WIyWlLk6GJQsqaUBKTNV-0" />
        <mxCell id="WIyWlLk6GJQsqaUBKTNV-1" parent="WIyWlLk6GJQsqaUBKTNV-0" />
        <mxCell id="-FjUD7v2yNhIkGTLt7lq-0" value="HANDLE PAY" style="text;html=1;strokeColor=#006EAF;fillColor=#1ba1e2;align=center;verticalAlign=middle;whiteSpace=wrap;rounded=0;fontColor=#ffffff;" vertex="1" parent="WIyWlLk6GJQsqaUBKTNV-1">
          <mxGeometry x="244" y="30" width="340" height="30" as="geometry" />
        </mxCell>
        <mxCell id="-FjUD7v2yNhIkGTLt7lq-6" value="" style="edgeStyle=orthogonalEdgeStyle;rounded=0;orthogonalLoop=1;jettySize=auto;html=1;" edge="1" parent="WIyWlLk6GJQsqaUBKTNV-1" source="-FjUD7v2yNhIkGTLt7lq-1" target="-FjUD7v2yNhIkGTLt7lq-5">
          <mxGeometry relative="1" as="geometry" />
        </mxCell>
        <mxCell id="-FjUD7v2yNhIkGTLt7lq-1" value="&lt;font face=&quot;Fira Code, Consolas, Courier New, monospace, Consolas, Courier New, monospace&quot; color=&quot;#abb2bf&quot;&gt;state.paymentMethod.?code&lt;/font&gt;" style="rhombus;whiteSpace=wrap;html=1;" vertex="1" parent="WIyWlLk6GJQsqaUBKTNV-1">
          <mxGeometry x="109" y="120" width="240" height="120" as="geometry" />
        </mxCell>
        <mxCell id="-FjUD7v2yNhIkGTLt7lq-3" value="" style="endArrow=classic;html=1;rounded=0;exitX=1;exitY=0.5;exitDx=0;exitDy=0;entryX=0;entryY=0.5;entryDx=0;entryDy=0;" edge="1" parent="WIyWlLk6GJQsqaUBKTNV-1" source="-FjUD7v2yNhIkGTLt7lq-1" target="-FjUD7v2yNhIkGTLt7lq-11">
          <mxGeometry width="50" height="50" relative="1" as="geometry">
            <mxPoint x="389" y="340" as="sourcePoint" />
            <mxPoint x="479" y="180" as="targetPoint" />
          </mxGeometry>
        </mxCell>
        <mxCell id="-FjUD7v2yNhIkGTLt7lq-8" value="" style="edgeStyle=orthogonalEdgeStyle;rounded=0;orthogonalLoop=1;jettySize=auto;html=1;" edge="1" parent="WIyWlLk6GJQsqaUBKTNV-1" source="-FjUD7v2yNhIkGTLt7lq-5" target="-FjUD7v2yNhIkGTLt7lq-7">
          <mxGeometry relative="1" as="geometry" />
        </mxCell>
        <mxCell id="-FjUD7v2yNhIkGTLt7lq-5" value="response = await new walletApi().topUp(state.paymentMethod.code, totalAmountDisplay);" style="whiteSpace=wrap;html=1;" vertex="1" parent="WIyWlLk6GJQsqaUBKTNV-1">
          <mxGeometry x="79" y="300" width="300" height="60" as="geometry" />
        </mxCell>
        <mxCell id="-FjUD7v2yNhIkGTLt7lq-10" value="Yes" style="edgeStyle=orthogonalEdgeStyle;rounded=0;orthogonalLoop=1;jettySize=auto;html=1;" edge="1" parent="WIyWlLk6GJQsqaUBKTNV-1" source="-FjUD7v2yNhIkGTLt7lq-7" target="-FjUD7v2yNhIkGTLt7lq-9">
          <mxGeometry relative="1" as="geometry" />
        </mxCell>
        <mxCell id="-FjUD7v2yNhIkGTLt7lq-15" value="No" style="edgeStyle=orthogonalEdgeStyle;rounded=0;orthogonalLoop=1;jettySize=auto;html=1;" edge="1" parent="WIyWlLk6GJQsqaUBKTNV-1" source="-FjUD7v2yNhIkGTLt7lq-7" target="-FjUD7v2yNhIkGTLt7lq-14">
          <mxGeometry relative="1" as="geometry" />
        </mxCell>
        <mxCell id="-FjUD7v2yNhIkGTLt7lq-7" value="response.err" style="rhombus;whiteSpace=wrap;html=1;" vertex="1" parent="WIyWlLk6GJQsqaUBKTNV-1">
          <mxGeometry x="164" y="430" width="130" height="70" as="geometry" />
        </mxCell>
        <mxCell id="-FjUD7v2yNhIkGTLt7lq-25" value="" style="edgeStyle=orthogonalEdgeStyle;rounded=0;orthogonalLoop=1;jettySize=auto;html=1;entryX=0.5;entryY=1;entryDx=0;entryDy=0;" edge="1" parent="WIyWlLk6GJQsqaUBKTNV-1" source="-FjUD7v2yNhIkGTLt7lq-9" target="-FjUD7v2yNhIkGTLt7lq-11">
          <mxGeometry relative="1" as="geometry" />
        </mxCell>
        <mxCell id="-FjUD7v2yNhIkGTLt7lq-9" value="show modal err" style="ellipse;whiteSpace=wrap;html=1;" vertex="1" parent="WIyWlLk6GJQsqaUBKTNV-1">
          <mxGeometry x="479" y="425" width="80" height="80" as="geometry" />
        </mxCell>
        <mxCell id="-FjUD7v2yNhIkGTLt7lq-11" value="End" style="ellipse;whiteSpace=wrap;html=1;" vertex="1" parent="WIyWlLk6GJQsqaUBKTNV-1">
          <mxGeometry x="479" y="140" width="80" height="80" as="geometry" />
        </mxCell>
        <mxCell id="-FjUD7v2yNhIkGTLt7lq-19" value="" style="edgeStyle=orthogonalEdgeStyle;rounded=0;orthogonalLoop=1;jettySize=auto;html=1;" edge="1" parent="WIyWlLk6GJQsqaUBKTNV-1" source="-FjUD7v2yNhIkGTLt7lq-14" target="-FjUD7v2yNhIkGTLt7lq-18">
          <mxGeometry relative="1" as="geometry" />
        </mxCell>
        <mxCell id="-FjUD7v2yNhIkGTLt7lq-14" value="const paymentUrl = response.actionData.webviewUrl&lt;br&gt;const paymentMethod = state.paymentMethod?.method" style="whiteSpace=wrap;html=1;" vertex="1" parent="WIyWlLk6GJQsqaUBKTNV-1">
          <mxGeometry x="79" y="585" width="300" height="60" as="geometry" />
        </mxCell>
        <mxCell id="-FjUD7v2yNhIkGTLt7lq-21" value="Yes" style="edgeStyle=orthogonalEdgeStyle;rounded=0;orthogonalLoop=1;jettySize=auto;html=1;" edge="1" parent="WIyWlLk6GJQsqaUBKTNV-1" source="-FjUD7v2yNhIkGTLt7lq-18" target="-FjUD7v2yNhIkGTLt7lq-20">
          <mxGeometry relative="1" as="geometry" />
        </mxCell>
        <mxCell id="-FjUD7v2yNhIkGTLt7lq-18" value="paymentMethod =&amp;nbsp;ONE_PAY_QRCODE" style="rhombus;whiteSpace=wrap;html=1;" vertex="1" parent="WIyWlLk6GJQsqaUBKTNV-1">
          <mxGeometry x="106.5" y="710" width="245" height="100" as="geometry" />
        </mxCell>
        <mxCell id="-FjUD7v2yNhIkGTLt7lq-23" value="" style="edgeStyle=orthogonalEdgeStyle;rounded=0;orthogonalLoop=1;jettySize=auto;html=1;entryX=1;entryY=0.5;entryDx=0;entryDy=0;" edge="1" parent="WIyWlLk6GJQsqaUBKTNV-1" source="-FjUD7v2yNhIkGTLt7lq-20" target="-FjUD7v2yNhIkGTLt7lq-11">
          <mxGeometry relative="1" as="geometry">
            <mxPoint x="916.5" y="760" as="targetPoint" />
          </mxGeometry>
        </mxCell>
        <mxCell id="-FjUD7v2yNhIkGTLt7lq-20" value="handlePayQRCodeOnePay(paymentUrl);" style="whiteSpace=wrap;html=1;" vertex="1" parent="WIyWlLk6GJQsqaUBKTNV-1">
          <mxGeometry x="494" y="730" width="255" height="60" as="geometry" />
        </mxCell>
        <mxCell id="-FjUD7v2yNhIkGTLt7lq-27" value="navigate paymentWebview" style="whiteSpace=wrap;html=1;fillColor=#e3c800;fontColor=#000000;strokeColor=#B09500;" vertex="1" parent="WIyWlLk6GJQsqaUBKTNV-1">
          <mxGeometry x="169" y="920" width="120" height="60" as="geometry" />
        </mxCell>
        <mxCell id="-FjUD7v2yNhIkGTLt7lq-49" value="ORDER CONFIRM" style="rounded=0;whiteSpace=wrap;html=1;fillColor=#e3c800;strokeColor=#B09500;fontColor=#000000;" vertex="1" parent="WIyWlLk6GJQsqaUBKTNV-1">
          <mxGeometry x="-535" y="40" width="250" height="30" as="geometry" />
        </mxCell>
        <mxCell id="-FjUD7v2yNhIkGTLt7lq-50" value="" style="endArrow=none;dashed=1;html=1;dashPattern=1 3;strokeWidth=2;rounded=0;exitX=0.5;exitY=1;exitDx=0;exitDy=0;entryX=0.5;entryY=0;entryDx=0;entryDy=0;" edge="1" parent="WIyWlLk6GJQsqaUBKTNV-1" source="-FjUD7v2yNhIkGTLt7lq-49">
          <mxGeometry width="50" height="50" relative="1" as="geometry">
            <mxPoint x="-218" y="200" as="sourcePoint" />
            <mxPoint x="-192.5" y="160" as="targetPoint" />
          </mxGeometry>
        </mxCell>
        <mxCell id="-FjUD7v2yNhIkGTLt7lq-51" value="" style="endArrow=none;dashed=1;html=1;dashPattern=1 3;strokeWidth=2;rounded=0;exitX=0.5;exitY=1;exitDx=0;exitDy=0;entryX=0.5;entryY=0;entryDx=0;entryDy=0;" edge="1" parent="WIyWlLk6GJQsqaUBKTNV-1" source="-FjUD7v2yNhIkGTLt7lq-49" target="-FjUD7v2yNhIkGTLt7lq-55">
          <mxGeometry width="50" height="50" relative="1" as="geometry">
            <mxPoint x="-218" y="200" as="sourcePoint" />
            <mxPoint x="-360" y="190" as="targetPoint" />
          </mxGeometry>
        </mxCell>
        <mxCell id="-FjUD7v2yNhIkGTLt7lq-52" value="" style="endArrow=none;dashed=1;html=1;dashPattern=1 3;strokeWidth=2;rounded=0;exitX=0.5;exitY=1;exitDx=0;exitDy=0;entryX=0.5;entryY=0;entryDx=0;entryDy=0;" edge="1" parent="WIyWlLk6GJQsqaUBKTNV-1" source="-FjUD7v2yNhIkGTLt7lq-49" target="-FjUD7v2yNhIkGTLt7lq-53">
          <mxGeometry width="50" height="50" relative="1" as="geometry">
            <mxPoint x="-218" y="200" as="sourcePoint" />
            <mxPoint x="-550" y="150" as="targetPoint" />
          </mxGeometry>
        </mxCell>
        <mxCell id="-FjUD7v2yNhIkGTLt7lq-53" value="handleCheckStatusOrder" style="shape=ellipse;html=1;dashed=0;whiteSpace=wrap;perimeter=ellipsePerimeter;" vertex="1" parent="WIyWlLk6GJQsqaUBKTNV-1">
          <mxGeometry x="-740" y="160" width="195" height="60" as="geometry" />
        </mxCell>
        <mxCell id="-FjUD7v2yNhIkGTLt7lq-54" value="handleCheckingOrder" style="shape=ellipse;html=1;dashed=0;whiteSpace=wrap;perimeter=ellipsePerimeter;" vertex="1" parent="WIyWlLk6GJQsqaUBKTNV-1">
          <mxGeometry x="-260" y="160" width="195" height="60" as="geometry" />
        </mxCell>
        <mxCell id="-FjUD7v2yNhIkGTLt7lq-55" value="cbPaypal({cancel, token})" style="shape=ellipse;html=1;dashed=0;whiteSpace=wrap;perimeter=ellipsePerimeter;" vertex="1" parent="WIyWlLk6GJQsqaUBKTNV-1">
          <mxGeometry x="-460" y="165" width="100" height="50" as="geometry" />
        </mxCell>
        <mxCell id="-FjUD7v2yNhIkGTLt7lq-59" value="" style="endArrow=classic;html=1;rounded=0;exitX=0.5;exitY=1;exitDx=0;exitDy=0;entryX=0.5;entryY=0;entryDx=0;entryDy=0;" edge="1" parent="WIyWlLk6GJQsqaUBKTNV-1" source="-FjUD7v2yNhIkGTLt7lq-18" target="-FjUD7v2yNhIkGTLt7lq-27">
          <mxGeometry width="50" height="50" relative="1" as="geometry">
            <mxPoint x="-211" y="720" as="sourcePoint" />
            <mxPoint x="-161" y="670" as="targetPoint" />
          </mxGeometry>
        </mxCell>
        <mxCell id="-FjUD7v2yNhIkGTLt7lq-60" value="" style="endArrow=classic;html=1;rounded=0;entryX=0;entryY=0.5;entryDx=0;entryDy=0;exitX=0.5;exitY=1;exitDx=0;exitDy=0;" edge="1" parent="WIyWlLk6GJQsqaUBKTNV-1" source="-FjUD7v2yNhIkGTLt7lq-61" target="-FjUD7v2yNhIkGTLt7lq-27">
          <mxGeometry width="50" height="50" relative="1" as="geometry">
            <mxPoint x="-380" y="320" as="sourcePoint" />
            <mxPoint x="-160" y="650" as="targetPoint" />
            <Array as="points">
              <mxPoint x="-410" y="950" />
            </Array>
          </mxGeometry>
        </mxCell>
        <mxCell id="-FjUD7v2yNhIkGTLt7lq-61" value="pass handle function" style="html=1;dashed=0;whiteSpace=wrap;" vertex="1" parent="WIyWlLk6GJQsqaUBKTNV-1">
          <mxGeometry x="-530" y="320" width="240" height="50" as="geometry" />
        </mxCell>
        <mxCell id="-FjUD7v2yNhIkGTLt7lq-62" value="" style="endArrow=classic;html=1;rounded=0;exitX=0.5;exitY=1;exitDx=0;exitDy=0;entryX=0.5;entryY=0;entryDx=0;entryDy=0;" edge="1" parent="WIyWlLk6GJQsqaUBKTNV-1" source="-FjUD7v2yNhIkGTLt7lq-53" target="-FjUD7v2yNhIkGTLt7lq-61">
          <mxGeometry width="50" height="50" relative="1" as="geometry">
            <mxPoint x="-240" y="370" as="sourcePoint" />
            <mxPoint x="-190" y="320" as="targetPoint" />
          </mxGeometry>
        </mxCell>
        <mxCell id="-FjUD7v2yNhIkGTLt7lq-63" value="" style="endArrow=classic;html=1;rounded=0;exitX=0.5;exitY=1;exitDx=0;exitDy=0;entryX=0.5;entryY=0;entryDx=0;entryDy=0;" edge="1" parent="WIyWlLk6GJQsqaUBKTNV-1" source="-FjUD7v2yNhIkGTLt7lq-55" target="-FjUD7v2yNhIkGTLt7lq-61">
          <mxGeometry width="50" height="50" relative="1" as="geometry">
            <mxPoint x="-240" y="370" as="sourcePoint" />
            <mxPoint x="-190" y="320" as="targetPoint" />
          </mxGeometry>
        </mxCell>
        <mxCell id="-FjUD7v2yNhIkGTLt7lq-64" value="" style="endArrow=classic;html=1;rounded=0;exitX=0.5;exitY=1;exitDx=0;exitDy=0;entryX=0.5;entryY=0;entryDx=0;entryDy=0;" edge="1" parent="WIyWlLk6GJQsqaUBKTNV-1" target="-FjUD7v2yNhIkGTLt7lq-61">
          <mxGeometry width="50" height="50" relative="1" as="geometry">
            <mxPoint x="-192.5" y="220" as="sourcePoint" />
            <mxPoint x="-350" y="270" as="targetPoint" />
          </mxGeometry>
        </mxCell>
        <mxCell id="-FjUD7v2yNhIkGTLt7lq-66" value="Payment Webview" style="rounded=0;whiteSpace=wrap;html=1;fillColor=#fa6800;strokeColor=#C73500;fontColor=#000000;" vertex="1" parent="WIyWlLk6GJQsqaUBKTNV-1">
          <mxGeometry x="1115" y="30" width="250" height="30" as="geometry" />
        </mxCell>
        <mxCell id="-FjUD7v2yNhIkGTLt7lq-76" value="" style="edgeStyle=orthogonalEdgeStyle;rounded=0;orthogonalLoop=1;jettySize=auto;html=1;" edge="1" parent="WIyWlLk6GJQsqaUBKTNV-1" source="-FjUD7v2yNhIkGTLt7lq-68" target="-FjUD7v2yNhIkGTLt7lq-75">
          <mxGeometry relative="1" as="geometry" />
        </mxCell>
        <mxCell id="-FjUD7v2yNhIkGTLt7lq-68" value="handleMessage(data)" style="html=1;dashed=0;whiteSpace=wrap;" vertex="1" parent="WIyWlLk6GJQsqaUBKTNV-1">
          <mxGeometry x="1040" y="120" width="155" height="50" as="geometry" />
        </mxCell>
        <mxCell id="-FjUD7v2yNhIkGTLt7lq-71" value="postMessage" style="endArrow=classic;startArrow=classic;html=1;rounded=0;exitX=1;exitY=0.5;exitDx=0;exitDy=0;" edge="1" parent="WIyWlLk6GJQsqaUBKTNV-1" source="-FjUD7v2yNhIkGTLt7lq-66" target="-FjUD7v2yNhIkGTLt7lq-72">
          <mxGeometry width="50" height="50" relative="1" as="geometry">
            <mxPoint x="1290" y="120" as="sourcePoint" />
            <mxPoint x="1460" y="50" as="targetPoint" />
          </mxGeometry>
        </mxCell>
        <mxCell id="-FjUD7v2yNhIkGTLt7lq-72" value="ContentView" style="rounded=0;whiteSpace=wrap;html=1;fillColor=#fa6800;strokeColor=#C73500;fontColor=#000000;" vertex="1" parent="WIyWlLk6GJQsqaUBKTNV-1">
          <mxGeometry x="1943" y="30" width="250" height="30" as="geometry" />
        </mxCell>
        <mxCell id="-FjUD7v2yNhIkGTLt7lq-74" value="" style="endArrow=classic;startArrow=classic;html=1;rounded=0;exitX=1;exitY=0.5;exitDx=0;exitDy=0;entryX=0;entryY=0.5;entryDx=0;entryDy=0;" edge="1" parent="WIyWlLk6GJQsqaUBKTNV-1" source="-FjUD7v2yNhIkGTLt7lq-27" target="-FjUD7v2yNhIkGTLt7lq-66">
          <mxGeometry width="50" height="50" relative="1" as="geometry">
            <mxPoint x="890" y="730" as="sourcePoint" />
            <mxPoint x="1000" y="50" as="targetPoint" />
            <Array as="points">
              <mxPoint x="900" y="950" />
              <mxPoint x="900" y="45" />
            </Array>
          </mxGeometry>
        </mxCell>
        <mxCell id="-FjUD7v2yNhIkGTLt7lq-78" value="" style="edgeStyle=orthogonalEdgeStyle;rounded=0;orthogonalLoop=1;jettySize=auto;html=1;" edge="1" parent="WIyWlLk6GJQsqaUBKTNV-1" source="-FjUD7v2yNhIkGTLt7lq-75" target="-FjUD7v2yNhIkGTLt7lq-77">
          <mxGeometry relative="1" as="geometry" />
        </mxCell>
        <mxCell id="-FjUD7v2yNhIkGTLt7lq-75" value="take data from event" style="whiteSpace=wrap;html=1;dashed=0;" vertex="1" parent="WIyWlLk6GJQsqaUBKTNV-1">
          <mxGeometry x="1057.5" y="240" width="120" height="60" as="geometry" />
        </mxCell>
        <mxCell id="-FjUD7v2yNhIkGTLt7lq-80" value="" style="edgeStyle=orthogonalEdgeStyle;rounded=0;orthogonalLoop=1;jettySize=auto;html=1;" edge="1" parent="WIyWlLk6GJQsqaUBKTNV-1" source="-FjUD7v2yNhIkGTLt7lq-77" target="-FjUD7v2yNhIkGTLt7lq-79">
          <mxGeometry relative="1" as="geometry" />
        </mxCell>
        <mxCell id="-FjUD7v2yNhIkGTLt7lq-77" value="action =&amp;nbsp;data?.action&lt;br&gt;dataReceive = String(data?.data)" style="whiteSpace=wrap;html=1;dashed=0;" vertex="1" parent="WIyWlLk6GJQsqaUBKTNV-1">
          <mxGeometry x="1012.5" y="360" width="210" height="60" as="geometry" />
        </mxCell>
        <mxCell id="-FjUD7v2yNhIkGTLt7lq-84" value="yes" style="edgeStyle=orthogonalEdgeStyle;rounded=0;orthogonalLoop=1;jettySize=auto;html=1;" edge="1" parent="WIyWlLk6GJQsqaUBKTNV-1" source="-FjUD7v2yNhIkGTLt7lq-79" target="-FjUD7v2yNhIkGTLt7lq-83">
          <mxGeometry relative="1" as="geometry" />
        </mxCell>
        <mxCell id="-FjUD7v2yNhIkGTLt7lq-88" value="" style="edgeStyle=orthogonalEdgeStyle;rounded=0;orthogonalLoop=1;jettySize=auto;html=1;" edge="1" parent="WIyWlLk6GJQsqaUBKTNV-1" source="-FjUD7v2yNhIkGTLt7lq-79" target="-FjUD7v2yNhIkGTLt7lq-87">
          <mxGeometry relative="1" as="geometry" />
        </mxCell>
        <mxCell id="-FjUD7v2yNhIkGTLt7lq-79" value="action == &#39;finishPayment&#39;" style="rhombus;whiteSpace=wrap;html=1;dashed=0;" vertex="1" parent="WIyWlLk6GJQsqaUBKTNV-1">
          <mxGeometry x="1026.25" y="490" width="182.5" height="110" as="geometry" />
        </mxCell>
        <mxCell id="-FjUD7v2yNhIkGTLt7lq-86" value="yes" style="edgeStyle=orthogonalEdgeStyle;rounded=0;orthogonalLoop=1;jettySize=auto;html=1;" edge="1" parent="WIyWlLk6GJQsqaUBKTNV-1" source="-FjUD7v2yNhIkGTLt7lq-83" target="-FjUD7v2yNhIkGTLt7lq-85">
          <mxGeometry relative="1" as="geometry" />
        </mxCell>
        <mxCell id="-FjUD7v2yNhIkGTLt7lq-83" value="paymentMethodParam.method" style="rhombus;whiteSpace=wrap;html=1;dashed=0;" vertex="1" parent="WIyWlLk6GJQsqaUBKTNV-1">
          <mxGeometry x="1012.5" y="660" width="212.5" height="130" as="geometry" />
        </mxCell>
        <mxCell id="-FjUD7v2yNhIkGTLt7lq-85" value="Call&amp;nbsp; 1 of 2 handle onFinish" style="whiteSpace=wrap;html=1;dashed=0;" vertex="1" parent="WIyWlLk6GJQsqaUBKTNV-1">
          <mxGeometry x="1058.75" y="905" width="120" height="60" as="geometry" />
        </mxCell>
        <mxCell id="-FjUD7v2yNhIkGTLt7lq-90" value="" style="edgeStyle=orthogonalEdgeStyle;rounded=0;orthogonalLoop=1;jettySize=auto;html=1;" edge="1" parent="WIyWlLk6GJQsqaUBKTNV-1" source="-FjUD7v2yNhIkGTLt7lq-87" target="-FjUD7v2yNhIkGTLt7lq-89">
          <mxGeometry relative="1" as="geometry" />
        </mxCell>
        <mxCell id="-FjUD7v2yNhIkGTLt7lq-87" value="&lt;br&gt;&lt;span style=&quot;color: rgb(240, 240, 240); font-family: Helvetica; font-size: 12px; font-style: normal; font-variant-ligatures: normal; font-variant-caps: normal; font-weight: 400; letter-spacing: normal; orphans: 2; text-align: center; text-indent: 0px; text-transform: none; widows: 2; word-spacing: 0px; -webkit-text-stroke-width: 0px; background-color: rgb(42, 37, 47); text-decoration-thickness: initial; text-decoration-style: initial; text-decoration-color: initial; float: none; display: inline !important;&quot;&gt;action == &#39;orderChecking&#39;&lt;br&gt;&lt;/span&gt;" style="rhombus;whiteSpace=wrap;html=1;dashed=0;" vertex="1" parent="WIyWlLk6GJQsqaUBKTNV-1">
          <mxGeometry x="1340" y="490" width="190" height="110" as="geometry" />
        </mxCell>
        <mxCell id="-FjUD7v2yNhIkGTLt7lq-92" value="" style="edgeStyle=orthogonalEdgeStyle;rounded=0;orthogonalLoop=1;jettySize=auto;html=1;" edge="1" parent="WIyWlLk6GJQsqaUBKTNV-1" source="-FjUD7v2yNhIkGTLt7lq-89" target="-FjUD7v2yNhIkGTLt7lq-91">
          <mxGeometry relative="1" as="geometry" />
        </mxCell>
        <mxCell id="-FjUD7v2yNhIkGTLt7lq-89" value="call order checking handle" style="whiteSpace=wrap;html=1;dashed=0;" vertex="1" parent="WIyWlLk6GJQsqaUBKTNV-1">
          <mxGeometry x="1375" y="705" width="120" height="60" as="geometry" />
        </mxCell>
        <mxCell id="-FjUD7v2yNhIkGTLt7lq-91" value="End" style="ellipse;whiteSpace=wrap;html=1;dashed=0;" vertex="1" parent="WIyWlLk6GJQsqaUBKTNV-1">
          <mxGeometry x="1395" y="895" width="80" height="80" as="geometry" />
        </mxCell>
        <mxCell id="-FjUD7v2yNhIkGTLt7lq-93" value="" style="endArrow=classic;html=1;rounded=0;exitX=1;exitY=0.5;exitDx=0;exitDy=0;entryX=0;entryY=0.5;entryDx=0;entryDy=0;" edge="1" parent="WIyWlLk6GJQsqaUBKTNV-1" source="-FjUD7v2yNhIkGTLt7lq-85" target="-FjUD7v2yNhIkGTLt7lq-91">
          <mxGeometry width="50" height="50" relative="1" as="geometry">
            <mxPoint x="1020" y="840" as="sourcePoint" />
            <mxPoint x="1070" y="790" as="targetPoint" />
          </mxGeometry>
        </mxCell>
      </root>
    </mxGraphModel>
  </diagram>
</mxfile>
